<?xml version="1.0" encoding="UTF-8" standalone="no"?>
<svg
   xmlns:dc="http://purl.org/dc/elements/1.1/"
   xmlns:cc="http://creativecommons.org/ns#"
   xmlns:rdf="http://www.w3.org/1999/02/22-rdf-syntax-ns#"
   xmlns:svg="http://www.w3.org/2000/svg"
   xmlns="http://www.w3.org/2000/svg"
   width="1889.7638"
   height="566.92914"
   viewBox="0 0 500 150"
   version="1.1"
   id="svg129">
  <defs
     id="defs123">
    <clipPath
       clipPathUnits="userSpaceOnUse"
       id="clipPath151">
      <rect
         style="fill:none;stroke-width:0.264583"
         id="rect153"
         width="49.892857"
         height="69.547623"
         x="63.5"
         y="193.52382" />
    </clipPath>
    <clipPath
       clipPathUnits="userSpaceOnUse"
       id="clipPath157">
      <rect
         style="fill:none;stroke-width:0.264583"
         id="rect159"
         width="46.113098"
         height="80.130951"
         x="114.1488"
         y="159.50595" />
    </clipPath>
    <clipPath
       clipPathUnits="userSpaceOnUse"
       id="clipPath167">
      <rect
         style="fill:none;stroke-width:0.264583"
         id="rect169"
         width="52.160713"
         height="86.178574"
         x="169.33333"
         y="155.72618" />
    </clipPath>
    <clipPath
       clipPathUnits="userSpaceOnUse"
       id="clipPath177">
      <rect
         style="fill:none;stroke-width:0.264583"
         id="rect179"
         width="52.916664"
         height="80.130951"
         x="430.13687"
         y="190.5" />
    </clipPath>
    <clipPath
       clipPathUnits="userSpaceOnUse"
       id="clipPath204">
      <rect
         style="fill:none;stroke-width:0.264583"
         id="rect206"
         width="32.902897"
         height="2.24999"
         x="208.96886"
         y="308.76312" />
    </clipPath>
    <clipPath
       clipPathUnits="userSpaceOnUse"
       id="clipPath100">
      <rect
         style="fill:#ffffff;stroke-width:0.264583"
         id="rect102"
         width="47.128906"
         height="105.83333"
         x="95.911461"
         y="167.01823"
         rx="2.5000002"
         ry="2.400001" />
    </clipPath>
    <clipPath
       clipPathUnits="userSpaceOnUse"
       id="clipPath110">
      <rect
         style="fill:#ffffff;stroke-width:0.264583"
         id="rect112"
         width="58.704426"
         height="99.21875"
         x="329.90234"
         y="237.29817"
         rx="2.5000002"
         ry="2.400001" />
    </clipPath>
  </defs>
  <metadata
     id="metadata126">
    <rdf:RDF>
      <cc:Work
         rdf:about="">
        <dc:format>image/svg+xml</dc:format>
        <dc:type
           rdf:resource="http://purl.org/dc/dcmitype/StillImage" />
        <dc:title></dc:title>
      </cc:Work>
    </rdf:RDF>
  </metadata>
  <g
     id="layer1">
    <path
       id="text19"
       style="font-size:75.436px;line-height:1.25;font-family:Leorio;-inkscape-font-specification:Leorio;letter-spacing:10.5833px;fill:#000000;stroke-width:0.392896"
       d="m 71.908788,46.123801 0.150895,4.073654 h 6.713802 c 0.553198,0 1.056335,0.150424 1.508953,0.452168 0.452615,0.251455 0.804296,0.628806 1.055748,1.131713 0.301744,0.452617 0.452686,0.955754 0.452686,1.508953 v 11.994099 l -0.377237,-0.528132 c -0.301744,-0.301744 -0.779209,-0.678582 -1.432989,-1.131197 -0.653777,-0.502907 -1.433642,-0.98089 -2.338874,-1.433504 -0.854943,-0.452618 -1.986487,-0.829972 -3.394625,-1.131716 -1.408139,-0.352033 -2.891364,-0.527616 -4.450374,-0.527616 -1.911046,0 -3.772141,0.427151 -5.582605,1.282094 -1.810465,0.804651 -3.469788,1.986508 -4.978509,3.54552 -1.50872,1.50872 -2.740892,3.520239 -3.696414,6.034773 -0.905232,2.464241 -1.358056,5.205314 -1.358056,8.222755 0,2.967148 0.528294,5.632233 1.584399,7.995893 1.056103,2.313371 2.439218,4.124153 4.149101,5.431711 1.709883,1.307555 3.494989,2.313315 5.355746,3.017385 1.860753,0.65378 3.721333,0.980818 5.582086,0.980818 2.112209,0 4.149402,-0.276725 6.11074,-0.829924 2.011625,-0.553193 3.318751,-0.980863 3.922239,-1.282607 0.603488,-0.352036 1.081471,-0.653402 1.433504,-0.904854 0,0.85494 0.276728,1.583978 0.829924,2.187461 0.603488,0.553199 1.332524,0.829924 2.187464,0.829924 h 8.222755 v -4.299995 h -4.979024 c -0.603488,0 -1.131268,-0.201255 -1.583883,-0.603581 -0.402326,-0.452615 -0.603581,-0.980395 -0.603581,-1.583883 V 51.177755 c 0,-1.408136 -0.50314,-2.589996 -1.508953,-3.54552 -0.955522,-1.005813 -2.137381,-1.508434 -3.54552,-1.508434 z m 130.344502,0 v 4.073654 h 10.8629 c 0.95552,0 1.76003,0.351679 2.4138,1.055749 0.65378,0.65378 0.98082,1.433644 0.98082,2.338874 v 37.189978 c 0,0.553199 -0.20125,1.030663 -0.60358,1.432989 -0.35203,0.352033 -0.80486,0.528132 -1.35805,0.528132 h -12.29589 v 4.299995 h 30.62706 v -4.299995 h -10.10842 c -0.50291,0 -0.95573,-0.176099 -1.35806,-0.528132 -0.40232,-0.402326 -0.60358,-0.87979 -0.60358,-1.432989 v -39.90609 c 0,-0.85494 -0.20074,-1.634289 -0.60306,-2.338358 -0.40233,-0.754362 -0.98094,-1.332453 -1.7353,-1.734778 -0.70407,-0.452617 -1.48341,-0.679029 -2.33836,-0.679029 z m 223.22822,12.899471 c -2.1625,0 -4.17402,0.427668 -6.03478,1.282608 -1.81046,0.804651 -3.34452,1.885884 -4.60176,3.243731 -1.20698,1.357847 -2.26306,2.89139 -3.16828,4.601268 -0.85495,1.659593 -1.48336,3.34459 -1.88569,5.054473 -0.40232,1.659591 -0.60357,3.268601 -0.60357,4.827611 0,2.967151 0.37735,5.607595 1.13171,7.920963 0.75435,2.313372 1.68465,4.148794 2.79103,5.506641 1.15671,1.35785 2.51465,2.489393 4.07366,3.394625 1.559,0.854943 3.06739,1.433552 4.52583,1.735296 1.45844,0.301745 2.96733,0.452684 4.52633,0.452684 3.21861,0 6.03462,-0.679236 8.44857,-2.037085 2.46425,-1.408134 4.35052,-3.06746 5.65806,-4.978506 0.70409,-0.955524 1.03061,-1.961282 0.98031,-3.017388 -0.0503,-1.106395 -0.17608,-1.835943 -0.37724,-2.187979 -0.20116,-0.402326 -0.4019,-0.703692 -0.60307,-0.904854 l -0.22635,0.452167 c -0.20116,0.352036 -0.50302,0.80486 -0.90535,1.358059 -0.40232,0.553196 -0.88032,1.181603 -1.43351,1.885672 -0.55319,0.653778 -1.23193,1.307859 -2.03658,1.961637 -0.80465,0.65378 -1.68463,1.257027 -2.64014,1.810226 -0.90522,0.553196 -1.98647,1.006023 -3.24374,1.358056 -1.25722,0.352036 -2.5649,0.528132 -3.92274,0.528132 -1.20698,0 -2.36368,-0.150939 -3.47009,-0.452683 -1.05609,-0.352036 -1.96123,-0.779704 -2.71558,-1.28261 -0.75438,-0.502907 -1.43359,-1.106157 -2.03708,-1.810227 -0.60349,-0.704069 -1.10612,-1.408461 -1.50844,-2.112531 -0.40233,-0.704069 -0.75454,-1.458261 -1.05627,-2.262912 -0.30176,-0.804648 -0.52816,-1.508527 -0.67903,-2.112016 -0.15086,-0.603488 -0.27665,-1.207254 -0.37724,-1.810742 -0.10057,-0.603488 -0.17552,-1.00548 -0.22582,-1.206643 v -0.528134 h 22.10252 c 0.85495,0 1.60914,-0.100627 2.2629,-0.301789 0.65379,-0.201163 1.18208,-0.427575 1.58441,-0.67903 0.40232,-0.301744 0.72938,-0.628785 0.98081,-0.980818 0.25146,-0.352036 0.42704,-0.678558 0.52763,-0.980302 0.10057,-0.301745 0.17605,-0.603626 0.22635,-0.90537 0.0503,-0.352036 0.0754,-0.578448 0.0754,-0.67903 v -0.301791 c 0,-4.878192 -1.35794,-8.725136 -4.07365,-11.541413 -2.66539,-2.866568 -6.68843,-4.299996 -12.06955,-4.299996 z m -159.4626,0.980819 c -4.87821,0 -9.0527,1.860579 -12.52276,5.582089 -3.41976,3.721507 -5.1294,8.22253 -5.1294,13.50305 0,3.419766 0.77935,6.587987 2.33836,9.504846 1.6093,2.91686 3.7466,5.230263 6.41201,6.940146 2.7157,1.709883 5.68317,2.564701 8.90179,2.564701 4.8782,0 9.02702,-1.860579 12.44679,-5.582089 3.47001,-3.721508 5.20483,-8.197374 5.20483,-13.427604 0,-5.28052 -1.73482,-9.781543 -5.20483,-13.50305 -3.41977,-3.72151 -7.56859,-5.582089 -12.44679,-5.582089 z m 50.56436,0.829408 c -3.87239,0 -6.99082,1.1567 -9.35448,3.470071 -2.36365,2.263079 -3.54552,5.004152 -3.54552,8.222752 0,4.174128 1.00626,7.342349 3.01789,9.504847 -3.06771,1.760175 -4.60177,3.847169 -4.60177,6.261116 0,0.854943 0.15095,1.68512 0.45268,2.489771 0.30176,0.754362 0.62828,1.382766 0.98031,1.885672 0.35203,0.452618 0.75454,0.880285 1.20716,1.28261 0.45262,0.402326 0.75448,0.653378 0.90538,0.75396 0.20116,0.100581 0.37724,0.176051 0.52813,0.226343 l -0.52813,0.301789 c -0.35206,0.150873 -0.7797,0.452755 -1.28262,0.905372 -0.45263,0.402326 -0.93009,0.904947 -1.43299,1.508435 -0.45262,0.603488 -0.85513,1.408509 -1.20716,2.414323 -0.35203,1.00582 -0.52813,2.08706 -0.52813,3.24375 0,2.06191 0.65407,3.82186 1.96164,5.2803 1.30755,1.50872 3.24361,2.64026 5.80843,3.39462 2.61511,0.80465 5.78334,1.20716 9.50484,1.20716 2.61511,0 4.85304,-0.1761 6.7138,-0.52813 1.91106,-0.30175 3.62119,-0.85468 5.12993,-1.65933 1.559,-0.80465 2.71518,-1.9362 3.46956,-3.39463 0.75435,-1.45842 1.1317,-3.24405 1.1317,-5.35626 0,-1.30757 -0.22641,-2.489437 -0.67903,-3.545536 -0.40232,-1.005814 -0.93011,-1.835476 -1.58387,-2.489256 -0.60349,-0.653775 -1.45831,-1.20723 -2.56472,-1.659845 -1.05611,-0.502907 -2.01207,-0.854588 -2.86699,-1.055751 -0.80465,-0.251452 -1.86074,-0.427551 -3.16828,-0.528132 -1.25728,-0.100581 -2.21271,-0.150894 -2.8665,-0.150894 -0.60349,-0.05029 -1.4583,-0.07545 -2.56471,-0.07545 h -2.79104 c -0.65378,-0.05029 -1.55892,-0.100605 -2.7156,-0.150895 -1.15668,-0.05029 -2.08749,-0.150918 -2.79157,-0.301791 -0.70405,-0.201163 -1.43309,-0.452731 -2.18744,-0.754475 -0.75438,-0.301745 -1.30731,-0.678583 -1.65933,-1.131197 -0.35203,-0.502907 -0.52814,-1.081516 -0.52814,-1.735294 0,-1.961338 1.18187,-3.494876 3.54552,-4.601271 1.96133,1.005814 4.37536,1.508435 7.24194,1.508435 2.11219,0 3.97277,-0.402511 5.58207,-1.207162 1.6093,-0.80465 2.86663,-1.860724 3.77188,-3.168282 0.90522,-1.357847 1.55879,-2.790759 1.96111,-4.299479 0.40233,-1.55901 0.57844,-3.193693 0.52814,-4.903576 -0.0503,-1.106395 -0.10062,-1.785117 -0.15089,-2.036566 0.0503,-0.402326 0.20121,-0.829996 0.45267,-1.28261 0.25146,-0.502907 0.50303,-0.880264 0.75449,-1.131713 0.25143,-0.301744 0.42754,-0.401857 0.52813,-0.301276 0.25144,0.100581 0.30176,0.326477 0.1509,0.678513 l -0.75449,0.829924 0.75449,0.754475 c 0.45262,0.452615 1.03071,0.704186 1.73476,0.754476 0.75436,0.05029 1.58404,-0.327062 2.48926,-1.131713 0.35202,-0.352036 0.60362,-0.830017 0.75448,-1.433505 0.20116,-0.603488 0.27662,-1.231894 0.22635,-1.885675 -0.0503,-0.653777 -0.30186,-1.282184 -0.75448,-1.885672 -0.45263,-0.603488 -1.10617,-1.031155 -1.96112,-1.28261 -1.86076,-0.553193 -4.02323,0.402252 -6.48745,2.866493 -1.10641,-1.458428 -2.51468,-2.589974 -4.22455,-3.394625 -1.7099,-0.85494 -3.54531,-1.282607 -5.50664,-1.282606 z m -150.33502,0.07545 c -1.65959,0 -3.16849,0.251568 -4.52634,0.754475 -1.35785,0.502907 -2.46424,1.106673 -3.31918,1.810742 -0.80465,0.70407 -1.50852,1.558888 -2.11201,2.564702 -0.60349,1.005813 -1.05631,1.910947 -1.35806,2.715598 -0.25145,0.804646 -0.45271,1.659469 -0.60358,2.564699 l -0.30179,1.810742 v 0.679029 h 3.92276 l 0.0754,-0.905369 c 0.0503,-0.603488 0.22639,-1.332524 0.52814,-2.187464 0.30174,-0.905232 0.70425,-1.785726 1.20716,-2.640666 0.5532,-0.905232 1.38286,-1.659424 2.48925,-2.262913 1.15669,-0.653777 2.48949,-0.980818 3.99821,-0.980818 1.6093,0 2.99241,0.201255 4.1491,0.603581 1.15668,0.352036 2.0115,0.779703 2.5647,1.28261 0.60349,0.502907 1.0558,1.181626 1.35754,2.036569 0.30174,0.854938 0.47784,1.60913 0.52813,2.26291 0.0503,0.603488 0.0503,1.383353 0,2.338874 0,0.70407 -0.37683,1.483418 -1.13119,2.338359 -0.70407,0.80465 -1.81046,1.508529 -3.31918,2.112018 -1.50872,0.553196 -3.14341,0.804764 -4.90358,0.754475 -3.01744,-0.150874 -5.63272,0.503208 -7.84551,1.961636 -2.21279,1.408139 -3.44497,3.419661 -3.69642,6.034773 -0.30174,2.86657 0.40265,5.506495 2.11253,7.920448 1.70989,2.413952 4.14908,3.570655 7.31739,3.470074 1.25726,-0.05029 2.51408,-0.276188 3.77134,-0.678514 1.30756,-0.402325 2.38931,-0.829992 3.24425,-1.282607 0.85494,-0.452618 1.6846,-0.980916 2.48925,-1.584399 0.80465,-0.603488 1.30728,-1.005483 1.50844,-1.206646 l 0.60358,-0.603581 v 2.791045 c 0,0.452615 0.15094,0.855125 0.45268,1.207161 0.35204,0.301745 0.75455,0.452684 1.20717,0.452684 h 8.29768 v -4.1491 h -4.37544 c -0.45262,0 -0.85461,-0.15094 -1.20665,-0.452684 -0.30174,-0.352036 -0.45268,-0.779703 -0.45268,-1.28261 V 70.03707 c 0,-1.760173 -0.62841,-3.344543 -1.88568,-4.752682 -1.20697,-1.408139 -2.76619,-2.489372 -4.67723,-3.243728 -1.91104,-0.754361 -3.94772,-1.131715 -6.11022,-1.131715 z m 260.39443,1.866037 c 1.45765,-0.0055 2.78064,0.278019 3.96875,0.850077 1.40814,0.603488 2.48939,1.382834 3.24374,2.338359 0.80465,0.905232 1.4582,1.91099 1.96112,3.017385 0.50289,1.056105 0.82995,1.961237 0.98081,2.715598 0.20116,0.704067 0.30178,1.25752 0.30178,1.659845 0,0.854943 -0.30186,1.458193 -0.90535,1.810226 h -22.10305 c 0.0503,-0.402325 0.12576,-0.879789 0.22635,-1.432988 0.10057,-0.553196 0.40246,-1.50916 0.90538,-2.867007 0.55316,-1.357849 1.20727,-2.564347 1.96162,-3.620452 0.75435,-1.056103 1.91106,-2.037223 3.47006,-2.942455 1.55903,-0.905232 3.34412,-1.407853 5.35575,-1.508435 0.21376,-0.01257 0.42482,-0.01937 0.63304,-0.02015 z M 266.1698,64.077227 c 3.57063,0 6.61307,1.458584 9.12759,4.375443 2.56485,2.91686 3.84734,6.437278 3.84734,10.561114 0,4.123833 -1.28249,7.644252 -3.84734,10.561111 -2.51452,2.916859 -5.55696,4.375443 -9.12759,4.375443 -3.57064,0 -6.63875,-1.458584 -9.20358,-4.375443 -2.51453,-2.916859 -3.77186,-6.437278 -3.77186,-10.561111 0,-4.123836 1.25733,-7.644254 3.77186,-10.561114 2.56483,-2.916859 5.63294,-4.375443 9.20358,-4.375443 z M 70.474252,64.342845 c 0.1768,0.0055 0.353147,0.01731 0.529166,0.03617 2.916854,0.301744 5.305732,1.382974 7.166486,3.243728 1.911046,1.860753 3.067748,3.721851 3.470074,5.582605 0.251452,0.955521 0.377237,2.388433 0.377237,4.299479 0,1.860754 -0.07547,3.772164 -0.226343,5.733499 -0.100581,1.961338 -0.150894,3.017412 -0.150894,3.168283 0,1.156686 -1.056074,2.665068 -3.168282,4.525822 -2.061919,1.860754 -4.501108,2.79156 -7.317383,2.79156 -3.319185,0 -6.235838,-1.383114 -8.750371,-4.1491 -2.464242,-2.765986 -3.696415,-6.361877 -3.696415,-10.787454 0,-2.061919 0.377354,-4.023125 1.131713,-5.883878 0.754362,-1.911046 1.709806,-3.495416 2.866493,-4.752684 1.206977,-1.257263 2.539775,-2.23787 3.998206,-2.941939 1.276123,-0.616059 2.53269,-0.9046 3.770313,-0.866095 z m 245.656318,0.187068 c 1.76016,0 3.26855,0.377354 4.52583,1.131713 1.25727,0.754361 2.18807,1.785279 2.79156,3.092836 0.60349,1.307552 0.90485,2.841612 0.90485,4.601784 0,2.514534 -0.72903,4.601525 -2.18747,6.261119 -1.45844,1.659591 -3.31901,2.489253 -5.58207,2.489253 -2.41395,0 -4.47633,-0.729036 -6.1862,-2.187464 -1.6596,-1.508721 -2.48925,-3.620868 -2.48925,-6.336565 0,-2.413952 0.75419,-4.5261 2.2629,-6.336564 1.55903,-1.860754 3.54589,-2.766404 5.95985,-2.716112 z M 174.62138,79.994602 v 7.015591 c 0,0.65378 -1.1567,1.860796 -3.47007,3.620969 -2.31337,1.760172 -4.19911,2.71562 -5.65754,2.86649 -1.81046,0.251455 -3.41999,-0.02527 -4.82813,-0.829924 -1.35784,-0.85494 -2.03656,-2.288368 -2.03656,-4.299995 0,-1.709883 0.55345,-3.193108 1.65984,-4.450373 1.1064,-1.307558 2.84119,-2.011953 5.20485,-2.112534 4.17413,-0.201163 7.21657,-0.80441 9.12761,-1.810224 z m 143.69665,17.04857 c 1.50871,0 2.76606,0.02516 3.77188,0.07545 1.00581,0.05029 2.08703,0.176075 3.24371,0.377237 1.15668,0.201163 2.08701,0.502529 2.79104,0.904854 0.70408,0.402325 1.2827,0.955778 1.73529,1.659847 0.50292,0.70407 0.77912,1.53374 0.82942,2.48927 0.10059,4.52616 -3.99793,6.78925 -12.29588,6.78925 -2.21279,0 -4.24947,-0.20125 -6.11023,-0.60358 -1.81046,-0.35203 -3.36968,-1.0056 -4.67723,-1.96112 -1.30757,-0.90523 -1.96111,-2.03678 -1.96111,-3.39463 0,-2.51454 0.90511,-4.199543 2.71557,-5.054483 1.86077,-0.854943 5.17994,-1.282094 9.95754,-1.282095 z" />
    <text
       xml:space="preserve"
       style="font-size:50.8px;line-height:1.25;font-family:'Splendid 66';-inkscape-font-specification:'Splendid 66, ';stroke-width:0.264583"
       x="94.564041"
       y="68.595673"
       id="text92"><tspan
         id="tspan90"
         x="94.564041"
         y="68.595673"
         style="font-size:50.8px;stroke-width:0.264583" /></text>
    <g
       aria-label="dialogue"
       transform="matrix(0.88903791,0,0,0.88903791,14.942017,-124.91301)"
       id="text96"
       clip-path="url(#clipPath100)"
       style="font-size:75.436px;line-height:1.25;font-family:Leorio;-inkscape-font-specification:Leorio;letter-spacing:10.5833px;fill:#f56051;fill-opacity:1;stroke-width:0.392895">
      <path
         d="m 86.09973,236.21347 h 4.978776 v 4.29985 h -8.222524 q -1.282412,0 -2.187644,-0.8298 -0.829796,-0.90523 -0.829796,-2.18764 -0.528052,0.37718 -1.433284,0.90523 -0.905232,0.45262 -3.922671,1.28241 -2.942004,0.8298 -6.110316,0.8298 -2.791132,0 -5.582264,-0.98067 -2.791132,-1.0561 -5.355956,-3.01744 -2.564824,-1.96133 -4.14898,-5.43139 -1.584155,-3.54549 -1.584155,-7.99621 0,-4.52616 1.357847,-8.22253 1.433284,-3.7718 3.696364,-6.03488 2.26308,-2.33851 4.978776,-3.54549 2.715696,-1.28241 5.582264,-1.28241 2.338516,0 4.450724,0.52805 2.112208,0.45262 3.39462,1.13154 1.357848,0.67892 2.338515,1.43328 0.980668,0.67893 1.433284,1.13154 l 0.37718,0.52806 v -11.99433 q 0,-0.82979 -0.452616,-1.50872 -0.37718,-0.75436 -1.056104,-1.13154 -0.678924,-0.45261 -1.508719,-0.45261 h -6.713804 l -0.150872,-4.07355 h 9.429499 q 2.112208,0 3.545492,1.50872 1.50872,1.43329 1.50872,3.54549 v 39.3776 q 0,0.90523 0.603488,1.58415 0.678924,0.60349 1.584156,0.60349 z m -6.940112,-6.33662 q 0,-0.22631 0.150872,-3.16832 0.226308,-2.942 0.226308,-5.73313 0,-2.86657 -0.37718,-4.29985 -0.603488,-2.79114 -3.470055,-5.58227 -2.791132,-2.79113 -7.16642,-3.24375 -2.112208,-0.2263 -4.299852,0.8298 -2.187644,1.0561 -3.998108,2.942 -1.735028,1.8859 -2.866568,4.75247 -1.13154,2.79113 -1.13154,5.88401 0,6.63837 3.696364,10.78735 3.7718,4.14898 8.750576,4.14898 4.224416,0 7.317292,-2.79113 3.168311,-2.79114 3.168311,-4.52616 z"
         style="fill:#f56051;fill-opacity:1;stroke-width:0.392895"
         id="path30" />
      <path
         d="m 127.15907,236.21347 h 6.78924 v 4.29985 h -25.42193 v -4.29985 h 10.71191 q 0.75436,0 1.35785,-0.52805 0.60349,-0.60349 0.60349,-1.43329 v -24.13952 q 0,-0.82979 -0.60349,-1.35784 -0.60349,-0.60349 -1.35785,-0.60349 h -8.22252 v -4.29985 h 14.18196 v 30.4007 q 0,0.8298 0.52806,1.43329 0.60348,0.52805 1.43328,0.52805 z m -4.22442,-39.75477 h -6.86467 v -6.86468 h 6.86467 z"
         style="fill:#f56051;fill-opacity:1;stroke-width:0.392895"
         id="path32" />
      <path
         d="m 178.1005,236.36434 h 4.37528 v 4.14898 h -8.29796 q -0.67892,0 -1.20697,-0.45262 -0.45262,-0.52805 -0.45262,-1.20697 v -2.79113 q -0.22631,0.22631 -0.60349,0.60349 -0.30174,0.30174 -1.50872,1.20697 -1.20697,0.90523 -2.48938,1.58416 -1.28242,0.67892 -3.24375,1.28241 -1.8859,0.60349 -3.7718,0.67892 -4.75247,0.15087 -7.31729,-3.47005 -2.56483,-3.62093 -2.11221,-7.92078 0.37718,-3.92267 3.69636,-6.03488 3.31919,-2.18765 7.84535,-1.96134 2.64026,0.0754 4.90334,-0.75436 2.26308,-0.90523 3.31918,-2.11221 1.13154,-1.28241 1.13154,-2.33851 0.0754,-1.43329 0,-2.33852 -0.0754,-0.98067 -0.52805,-2.26308 -0.45262,-1.28241 -1.35785,-2.03677 -0.8298,-0.75436 -2.56482,-1.28241 -1.73503,-0.60349 -4.14898,-0.60349 -2.26308,0 -3.99811,0.98067 -1.65959,0.90523 -2.48939,2.26308 -0.75436,1.28241 -1.20698,2.64026 -0.45261,1.28241 -0.52805,2.18764 l -0.0754,0.90523 h -3.92267 q 0,-0.2263 0,-0.67892 0.0754,-0.45262 0.30174,-1.81046 0.22631,-1.35785 0.60349,-2.56483 0.45261,-1.20697 1.35785,-2.71569 0.90523,-1.50872 2.1122,-2.56483 1.28241,-1.0561 3.31919,-1.81046 2.03677,-0.75436 4.52616,-0.75436 3.24374,0 6.11031,1.13154 2.86657,1.13154 4.67703,3.24375 1.8859,2.1122 1.8859,4.75246 v 21.12208 q 0,0.75436 0.45262,1.28242 0.52805,0.45261 1.20698,0.45261 z m -5.95945,-5.88401 v -7.01554 q -2.86657,1.50872 -9.12775,1.81046 -3.5455,0.15087 -5.20509,2.11221 -1.65959,1.8859 -1.65959,4.45072 0,3.01744 2.03677,4.29985 2.11221,1.20698 4.82791,0.8298 2.18764,-0.22631 5.6577,-2.86657 3.47005,-2.64026 3.47005,-3.62093 z"
         style="fill:#f56051;fill-opacity:1;stroke-width:0.392895"
         id="path34" />
      <path
         d="m 220.29137,236.21347 h 10.10842 v 4.29985 h -30.62701 v -4.29985 h 12.29606 q 0.8298,0 1.35785,-0.52805 0.60349,-0.60349 0.60349,-1.43329 v -37.18994 q 0,-1.35785 -0.98067,-2.33852 -0.98067,-1.0561 -2.41395,-1.0561 h -10.86278 v -4.07355 H 213.653 q 1.28241,0 2.33851,0.67893 1.13154,0.60348 1.73503,1.73502 0.60349,1.05611 0.60349,2.33852 v 39.90564 q 0,0.8298 0.60349,1.43329 0.60349,0.52805 1.35785,0.52805 z"
         style="fill:#f56051;fill-opacity:1;stroke-width:0.392895"
         id="path36" />
      <path
         d="m 263.53826,241.56942 q -4.82791,0 -8.90145,-2.56482 -3.99811,-2.56482 -6.41206,-6.94011 -2.33852,-4.37529 -2.33852,-9.50494 0,-7.92078 5.12965,-13.50304 5.20509,-5.58226 12.52238,-5.58226 7.31729,0 12.44694,5.58226 5.20508,5.58226 5.20508,13.50304 0,7.84535 -5.20508,13.42761 -5.12965,5.58226 -12.44694,5.58226 z m -9.05232,-8.52426 q 3.84723,4.37529 9.20319,4.37529 5.35595,0 9.12775,-4.37529 3.84724,-4.37529 3.84724,-10.56104 0,-6.18575 -3.84724,-10.56104 -3.7718,-4.37529 -9.12775,-4.37529 -5.35596,0 -9.20319,4.37529 -3.7718,4.37529 -3.7718,10.56104 0,6.18575 3.7718,10.56104 z"
         style="fill:#f56051;fill-opacity:1;stroke-width:0.392895"
         id="path38" />
      <path
         d="m 316.13935,236.21347 q 1.65959,0 2.56482,0.0754 0.98067,0 2.86657,0.15087 1.96134,0.15087 3.16831,0.52805 1.28241,0.30174 2.86657,1.0561 1.65959,0.67893 2.56482,1.65959 0.98067,0.98067 1.58416,2.48939 0.67892,1.58416 0.67892,3.54549 0,3.16832 -1.13154,5.35596 -1.13154,2.18764 -3.47005,3.39462 -2.26308,1.20698 -5.12965,1.65959 -2.79113,0.52805 -6.7138,0.52805 -5.58227,0 -9.50494,-1.20697 -3.84723,-1.13154 -5.80857,-3.39462 -1.96134,-2.18765 -1.96134,-5.28052 0,-1.73503 0.52806,-3.24375 0.52805,-1.50872 1.20697,-2.41395 0.75436,-0.90523 1.43329,-1.50872 0.75436,-0.67893 1.28241,-0.90523 l 0.52805,-0.30175 q -0.22631,-0.0754 -0.52805,-0.2263 -0.22631,-0.15088 -0.90523,-0.75436 -0.67893,-0.60349 -1.20698,-1.28242 -0.52805,-0.75436 -0.98067,-1.8859 -0.45261,-1.20697 -0.45261,-2.48938 0,-3.62093 4.60159,-6.26119 -3.01744,-3.24375 -3.01744,-9.50494 0,-4.8279 3.54549,-8.22252 3.5455,-3.47006 9.35407,-3.47006 2.942,0 5.50682,1.28241 2.56483,1.20698 4.22442,3.39462 3.69636,-3.69636 6.4875,-2.86656 1.28241,0.37718 1.96133,1.28241 0.67893,0.90523 0.75436,1.8859 0.0754,0.98067 -0.22631,1.8859 -0.2263,0.90523 -0.75436,1.43328 -1.35784,1.20698 -2.48938,1.13154 -1.05611,-0.0754 -1.73503,-0.75436 l -0.75436,-0.75436 q 0,0 0.75436,-0.82979 0.22631,-0.52806 -0.15087,-0.67893 -0.15088,-0.15087 -0.52806,0.30175 -0.37718,0.37718 -0.75436,1.13154 -0.37718,0.67892 -0.45261,1.28241 0.0754,0.37718 0.15087,2.03677 0.0754,2.56482 -0.52805,4.90334 -0.60349,2.26308 -1.96134,4.29985 -1.35785,1.96134 -3.7718,3.16831 -2.41395,1.20698 -5.58226,1.20698 -4.29985,0 -7.24186,-1.50872 -3.54549,1.65959 -3.54549,4.6016 0,0.98066 0.52805,1.73502 0.52806,0.67893 1.6596,1.13154 1.13154,0.45262 2.18764,0.75436 1.0561,0.22631 2.79113,0.30175 1.73503,0.0754 2.7157,0.15087 1.0561,0 2.79113,0 z m -2.48939,-28.21306 q -3.62093,-0.0754 -5.95944,2.71569 -2.26308,2.7157 -2.26308,6.33663 0,4.07354 2.48939,6.33662 2.56482,2.18764 6.18575,2.18764 3.39462,0 5.58226,-2.48938 2.18764,-2.48939 2.18764,-6.26119 0,-2.64026 -0.90523,-4.6016 -0.90523,-1.96133 -2.79113,-3.09287 -1.8859,-1.13154 -4.52616,-1.13154 z m 2.26308,44.80898 q 12.44694,0 12.29607,-6.78924 -0.0754,-1.43329 -0.8298,-2.48939 -0.67892,-1.0561 -1.73503,-1.65959 -1.0561,-0.60349 -2.79113,-0.90523 -1.73503,-0.30175 -3.24375,-0.37718 -1.50872,-0.0754 -3.7718,-0.0754 -7.16641,0 -9.95755,1.28241 -2.71569,1.28241 -2.71569,5.05421 0,2.03678 1.96133,3.39462 1.96134,1.43329 4.67704,1.96134 2.79113,0.60349 6.11031,0.60349 z"
         style="fill:#f56051;fill-opacity:1;stroke-width:0.392895"
         id="path40" />
      <path
         d="m 387.22222,236.21347 h 3.84723 v 4.29985 h -6.48749 q -1.50872,0 -2.64026,-1.0561 -1.0561,-1.13154 -1.0561,-2.64026 v -0.60349 q -0.15088,0.22631 -0.52806,0.60349 -0.37718,0.37718 -1.58415,1.28241 -1.20698,0.90523 -2.48939,1.65959 -1.28241,0.67892 -3.24375,1.28241 -1.8859,0.60349 -3.84723,0.60349 -5.20509,0 -8.29796,-2.7157 -3.01744,-2.79113 -3.01744,-7.24185 v -20.82034 q 0,-1.0561 -0.75436,-1.81046 -0.75436,-0.75436 -1.81047,-0.75436 h -5.80857 v -4.75247 h 12.52238 v 4.75247 21.95188 q 0,2.03677 0.60348,3.54549 0.60349,1.43328 1.58416,2.18764 1.0561,0.75436 2.11221,1.13154 1.13154,0.30175 2.48939,0.30175 1.0561,0 2.41395,-0.22631 1.43328,-0.30175 3.16831,-1.13154 1.73503,-0.8298 3.16831,-2.03677 1.43329,-1.20698 2.33852,-3.31919 0.98067,-2.18764 0.98067,-4.90334 v -14.93633 q 0,-1.0561 -0.75436,-1.81046 -0.75436,-0.75436 -1.81047,-0.75436 h -5.73313 v -4.8279 h 12.52237 v 30.62701 q 0,0.90523 0.60349,1.50872 0.60349,0.60349 1.50872,0.60349 z"
         style="fill:#f56051;fill-opacity:1;stroke-width:0.392895"
         id="path42" />
      <path
         d="m 423.45372,236.74152 q 2.03677,0 3.92267,-0.52805 1.8859,-0.52805 3.24375,-1.35785 1.43328,-0.82979 2.64025,-1.81046 1.20698,-0.98067 2.03678,-1.96134 0.82979,-1.0561 1.43328,-1.8859 0.60349,-0.82979 0.90523,-1.35785 l 0.22631,-0.45261 q 0.30174,0.30174 0.60349,0.90523 0.30174,0.52805 0.37718,2.18764 0.0754,1.58416 -0.98067,3.01744 -1.96134,2.86657 -5.6577,4.97878 -3.62093,2.03677 -8.44883,2.03677 -2.33852,0 -4.52616,-0.45262 -2.18764,-0.45261 -4.52616,-1.73502 -2.33852,-1.35785 -4.07354,-3.39462 -1.6596,-2.03677 -2.79114,-5.50683 -1.13154,-3.47006 -1.13154,-7.92078 0,-2.33852 0.60349,-4.8279 0.60349,-2.56483 1.8859,-5.05422 1.35785,-2.56482 3.16831,-4.60159 1.8859,-2.03677 4.6016,-3.24375 2.79113,-1.28241 6.03488,-1.28241 8.07165,0 12.06976,4.29985 4.07354,4.22442 4.07354,11.54171 0,0.15087 0,0.30174 0,0.15087 -0.0754,0.67893 -0.0754,0.45261 -0.22631,0.90523 -0.15087,0.45261 -0.52805,0.98067 -0.37718,0.52805 -0.98067,0.98066 -0.60349,0.37718 -1.58416,0.67893 -0.98067,0.30174 -2.26308,0.30174 h -22.10274 q 0,0.22631 0,0.52805 0.0754,0.30175 0.2263,1.20698 0.15088,0.90523 0.37718,1.81046 0.22631,0.90524 0.67893,2.11221 0.45261,1.20698 1.0561,2.26308 0.60349,1.05611 1.50872,2.11221 0.90523,1.0561 2.03677,1.81046 1.13154,0.75436 2.7157,1.28242 1.65959,0.45261 3.47006,0.45261 z m 0.0754,-30.47614 q -3.01744,0.15087 -5.35595,1.50872 -2.33852,1.35785 -3.47006,2.942 -1.13154,1.58416 -1.96134,3.62093 -0.75436,2.03677 -0.90523,2.86657 -0.15087,0.82979 -0.22631,1.43328 h 22.10275 q 0.90523,-0.52805 0.90523,-1.81046 0,-0.60349 -0.30174,-1.65959 -0.22631,-1.13154 -0.98067,-2.7157 -0.75436,-1.65959 -1.96133,-3.01744 -1.13154,-1.43328 -3.24375,-2.33852 -2.03677,-0.98066 -4.6016,-0.82979 z"
         style="fill:#f56051;fill-opacity:1;stroke-width:0.392895"
         id="path44" />
    </g>
    <g
       aria-label="dialogue"
       transform="matrix(0.90136703,0,0,0.90136703,48.251314,-187.48293)"
       id="text106"
       clip-path="url(#clipPath110)"
       style="font-size:75.436px;line-height:1.25;font-family:Leorio;-inkscape-font-specification:Leorio;letter-spacing:10.5833px;fill:#f56051;fill-opacity:1;stroke-width:0.392895">
      <path
         d="m 74.524211,301.53248 h 4.978775 v 4.29986 h -8.222523 q -1.282412,0 -2.187644,-0.8298 -0.829796,-0.90523 -0.829796,-2.18764 -0.528052,0.37718 -1.433284,0.90523 -0.905232,0.45261 -3.922672,1.28241 -2.942004,0.8298 -6.110316,0.8298 -2.791132,0 -5.582263,-0.98067 -2.791132,-1.05611 -5.355956,-3.01744 -2.564824,-1.96134 -4.14898,-5.43139 -1.584156,-3.5455 -1.584156,-7.99622 0,-4.52616 1.357848,-8.22252 1.433284,-3.7718 3.696364,-6.03488 2.26308,-2.33852 4.978776,-3.54549 2.715695,-1.28242 5.582263,-1.28242 2.338516,0 4.450724,0.52806 2.112208,0.45261 3.39462,1.13154 1.357848,0.67892 2.338516,1.43328 0.980668,0.67892 1.433284,1.13154 l 0.37718,0.52805 v -11.99432 q 0,-0.8298 -0.452616,-1.50872 -0.37718,-0.75436 -1.056104,-1.13154 -0.678924,-0.45262 -1.50872,-0.45262 h -6.713804 l -0.150872,-4.07354 h 9.4295 q 2.112208,0 3.545492,1.50872 1.50872,1.43328 1.50872,3.54549 v 39.37759 q 0,0.90523 0.603488,1.58416 0.678924,0.60348 1.584156,0.60348 z m -6.940112,-6.33662 q 0,-0.22631 0.150872,-3.16831 0.226308,-2.942 0.226308,-5.73314 0,-2.86656 -0.37718,-4.29985 -0.603488,-2.79113 -3.470056,-5.58226 -2.791132,-2.79113 -7.16642,-3.24375 -2.112208,-0.22631 -4.299852,0.8298 -2.187643,1.0561 -3.998107,2.942 -1.735028,1.8859 -2.866568,4.75247 -1.13154,2.79113 -1.13154,5.88401 0,6.63836 3.696364,10.78734 3.771799,4.14898 8.750575,4.14898 4.224416,0 7.317292,-2.79113 3.168312,-2.79113 3.168312,-4.52616 z"
         style="fill:#f56051;fill-opacity:1;stroke-width:0.392895"
         id="path47" />
      <path
         d="m 115.58355,301.53248 h 6.78924 v 4.29986 H 96.950858 v -4.29986 h 10.711912 q 0.75436,0 1.35785,-0.52805 0.60349,-0.60349 0.60349,-1.43328 v -24.13952 q 0,-0.8298 -0.60349,-1.35785 -0.60349,-0.60349 -1.35785,-0.60349 h -8.222524 v -4.29985 h 14.181964 v 30.40071 q 0,0.82979 0.52806,1.43328 0.60348,0.52805 1.43328,0.52805 z m -4.22442,-39.75477 h -6.86467 v -6.86467 h 6.86467 z"
         style="fill:#f56051;fill-opacity:1;stroke-width:0.392895"
         id="path49" />
      <path
         d="m 166.52498,301.68336 h 4.37528 v 4.14898 h -8.29796 q -0.67892,0 -1.20697,-0.45262 -0.45262,-0.52805 -0.45262,-1.20698 v -2.79113 q -0.22631,0.22631 -0.60349,0.60349 -0.30174,0.30174 -1.50872,1.20698 -1.20697,0.90523 -2.48938,1.58415 -1.28242,0.67893 -3.24375,1.28241 -1.8859,0.60349 -3.7718,0.67893 -4.75247,0.15087 -7.31729,-3.47006 -2.56483,-3.62093 -2.11221,-7.92078 0.37718,-3.92267 3.69636,-6.03488 3.31919,-2.18764 7.84535,-1.96133 2.64026,0.0754 4.90334,-0.75436 2.26308,-0.90523 3.31918,-2.11221 1.13154,-1.28241 1.13154,-2.33852 0.0754,-1.43328 0,-2.33851 -0.0754,-0.98067 -0.52805,-2.26308 -0.45262,-1.28241 -1.35785,-2.03677 -0.8298,-0.75436 -2.56482,-1.28242 -1.73503,-0.60348 -4.14898,-0.60348 -2.26308,0 -3.99811,0.98066 -1.65959,0.90524 -2.48939,2.26308 -0.75436,1.28242 -1.20697,2.64026 -0.45262,1.28242 -0.52806,2.18765 l -0.0754,0.90523 h -3.92267 q 0,-0.22631 0,-0.67892 0.0754,-0.45262 0.30174,-1.81047 0.22631,-1.35785 0.60349,-2.56482 0.45261,-1.20698 1.35785,-2.7157 0.90523,-1.50872 2.1122,-2.56482 1.28242,-1.05611 3.31919,-1.81047 2.03677,-0.75436 4.52616,-0.75436 3.24374,0 6.11031,1.13154 2.86657,1.13154 4.67703,3.24375 1.8859,2.11221 1.8859,4.75247 v 21.12208 q 0,0.75436 0.45262,1.28241 0.52805,0.45262 1.20698,0.45262 z m -5.95945,-5.88401 v -7.01555 q -2.86657,1.50872 -9.12775,1.81047 -3.54549,0.15087 -5.20509,2.1122 -1.65959,1.8859 -1.65959,4.45073 0,3.01744 2.03677,4.29985 2.11221,1.20697 4.82791,0.82979 2.18764,-0.2263 5.6577,-2.86656 3.47005,-2.64026 3.47005,-3.62093 z"
         style="fill:#f56051;fill-opacity:1;stroke-width:0.392895"
         id="path51" />
      <path
         d="m 208.71585,301.53248 h 10.10842 v 4.29986 h -30.62701 v -4.29986 h 12.29606 q 0.8298,0 1.35785,-0.52805 0.60349,-0.60349 0.60349,-1.43328 V 262.3812 q 0,-1.35785 -0.98067,-2.33851 -0.98067,-1.05611 -2.41395,-1.05611 h -10.86278 v -4.07354 h 13.88022 q 1.28241,0 2.33852,0.67892 1.13153,0.60349 1.73502,1.73503 0.60349,1.0561 0.60349,2.33852 v 39.90564 q 0,0.82979 0.60349,1.43328 0.60349,0.52805 1.35785,0.52805 z"
         style="fill:#f56051;fill-opacity:1;stroke-width:0.392895"
         id="path53" />
      <path
         d="m 251.96274,306.88844 q -4.82791,0 -8.90145,-2.56482 -3.99811,-2.56483 -6.41206,-6.94012 -2.33852,-4.37528 -2.33852,-9.50493 0,-7.92078 5.12965,-13.50304 5.20509,-5.58227 12.52238,-5.58227 7.31729,0 12.44694,5.58227 5.20508,5.58226 5.20508,13.50304 0,7.84534 -5.20508,13.42761 -5.12965,5.58226 -12.44694,5.58226 z m -9.05232,-8.52427 q 3.84723,4.37529 9.20319,4.37529 5.35596,0 9.12775,-4.37529 3.84724,-4.37529 3.84724,-10.56104 0,-6.18575 -3.84724,-10.56104 -3.77179,-4.37528 -9.12775,-4.37528 -5.35596,0 -9.20319,4.37528 -3.7718,4.37529 -3.7718,10.56104 0,6.18575 3.7718,10.56104 z"
         style="fill:#f56051;fill-opacity:1;stroke-width:0.392895"
         id="path55" />
      <path
         d="m 304.56383,301.53248 q 1.65959,0 2.56482,0.0754 0.98067,0 2.86657,0.15087 1.96134,0.15087 3.16831,0.52805 1.28241,0.30175 2.86657,1.05611 1.65959,0.67892 2.56482,1.65959 0.98067,0.98067 1.58416,2.48939 0.67892,1.58415 0.67892,3.54549 0,3.16831 -1.13154,5.35596 -1.13154,2.18764 -3.47005,3.39462 -2.26308,1.20697 -5.12965,1.65959 -2.79113,0.52805 -6.7138,0.52805 -5.58227,0 -9.50494,-1.20698 -3.84723,-1.13154 -5.80857,-3.39462 -1.96134,-2.18764 -1.96134,-5.28052 0,-1.73502 0.52806,-3.24374 0.52805,-1.50872 1.20697,-2.41396 0.75436,-0.90523 1.43329,-1.50872 0.75436,-0.67892 1.28241,-0.90523 l 0.52805,-0.30174 q -0.22631,-0.0754 -0.52805,-0.22631 -0.22631,-0.15087 -0.90523,-0.75436 -0.67893,-0.60349 -1.20698,-1.28241 -0.52805,-0.75436 -0.98067,-1.8859 -0.45261,-1.20698 -0.45261,-2.48939 0,-3.62093 4.60159,-6.26119 -3.01744,-3.24374 -3.01744,-9.50493 0,-4.82791 3.54549,-8.22253 3.5455,-3.47005 9.35407,-3.47005 2.942,0 5.50683,1.28241 2.56482,1.20698 4.22441,3.39462 3.69636,-3.69636 6.4875,-2.86657 1.28241,0.37718 1.96133,1.28241 0.67893,0.90524 0.75436,1.8859 0.0754,0.98067 -0.22631,1.8859 -0.2263,0.90524 -0.75436,1.43329 -1.35784,1.20697 -2.48938,1.13154 -1.05611,-0.0754 -1.73503,-0.75436 l -0.75436,-0.75436 q 0,0 0.75436,-0.8298 0.22631,-0.52805 -0.15087,-0.67892 -0.15088,-0.15087 -0.52806,0.30174 -0.37718,0.37718 -0.75436,1.13154 -0.37718,0.67893 -0.45261,1.28241 0.0754,0.37718 0.15087,2.03678 0.0754,2.56482 -0.52805,4.90334 -0.60349,2.26308 -1.96134,4.29985 -1.35784,1.96133 -3.7718,3.16831 -2.41395,1.20697 -5.58226,1.20697 -4.29985,0 -7.24186,-1.50872 -3.54549,1.6596 -3.54549,4.6016 0,0.98067 0.52805,1.73503 0.52806,0.67892 1.6596,1.13154 1.13154,0.45261 2.18764,0.75436 1.0561,0.22631 2.79113,0.30174 1.73503,0.0754 2.7157,0.15087 1.0561,0 2.79113,0 z m -2.48939,-28.21306 q -3.62093,-0.0754 -5.95944,2.7157 -2.26308,2.71569 -2.26308,6.33662 0,4.07355 2.48939,6.33663 2.56482,2.18764 6.18575,2.18764 3.39462,0 5.58226,-2.48939 2.18765,-2.48939 2.18765,-6.26119 0,-2.64026 -0.90524,-4.60159 -0.90523,-1.96134 -2.79113,-3.09288 -1.8859,-1.13154 -4.52616,-1.13154 z m 2.26308,44.80898 q 12.44694,0 12.29607,-6.78924 -0.0754,-1.43328 -0.8298,-2.48938 -0.67892,-1.05611 -1.73503,-1.6596 -1.0561,-0.60348 -2.79113,-0.90523 -1.73502,-0.30174 -3.24374,-0.37718 -1.50872,-0.0754 -3.7718,-0.0754 -7.16642,0 -9.95756,1.28241 -2.71569,1.28241 -2.71569,5.05421 0,2.03677 1.96133,3.39462 1.96134,1.43328 4.67704,1.96134 2.79113,0.60348 6.11031,0.60348 z"
         style="fill:#f56051;fill-opacity:1;stroke-width:0.392895"
         id="path57" />
      <path
         d="m 375.6467,301.53248 h 3.84724 v 4.29986 h -6.4875 q -1.50872,0 -2.64026,-1.05611 -1.0561,-1.13154 -1.0561,-2.64026 v -0.60349 q -0.15088,0.22631 -0.52806,0.60349 -0.37718,0.37718 -1.58415,1.28241 -1.20698,0.90524 -2.48939,1.6596 -1.28241,0.67892 -3.24375,1.28241 -1.8859,0.60349 -3.84723,0.60349 -5.20509,0 -8.29796,-2.7157 -3.01744,-2.79113 -3.01744,-7.24186 v -20.82033 q 0,-1.0561 -0.75436,-1.81046 -0.75436,-0.75436 -1.81047,-0.75436 h -5.80857 v -4.75247 h 12.52238 v 4.75247 21.95187 q 0,2.03677 0.60348,3.54549 0.60349,1.43329 1.58416,2.18765 1.0561,0.75436 2.11221,1.13154 1.13154,0.30174 2.48939,0.30174 1.0561,0 2.41395,-0.22631 1.43328,-0.30174 3.16831,-1.13154 1.73503,-0.82979 3.16831,-2.03677 1.43329,-1.20698 2.33852,-3.31918 0.98067,-2.18765 0.98067,-4.90334 v -14.93633 q 0,-1.0561 -0.75436,-1.81046 -0.75436,-0.75436 -1.81047,-0.75436 h -5.73313 v -4.82791 h 12.52237 v 30.62702 q 0,0.90523 0.60349,1.50872 0.60349,0.60348 1.50872,0.60348 z"
         style="fill:#f56051;fill-opacity:1;stroke-width:0.392895"
         id="path59" />
      <path
         d="m 411.8782,302.06054 q 2.03677,0 3.92267,-0.52806 1.8859,-0.52805 3.24375,-1.35784 1.43328,-0.8298 2.64026,-1.81047 1.20697,-0.98067 2.03677,-1.96133 0.82979,-1.05611 1.43328,-1.8859 0.60349,-0.8298 0.90523,-1.35785 l 0.22631,-0.45262 q 0.30175,0.30175 0.60349,0.90523 0.30174,0.52806 0.37718,2.18765 0.0754,1.58415 -0.98067,3.01744 -1.96133,2.86657 -5.6577,4.97877 -3.62093,2.03678 -8.44883,2.03678 -2.33852,0 -4.52616,-0.45262 -2.18764,-0.45262 -4.52616,-1.73503 -2.33852,-1.35785 -4.07354,-3.39462 -1.6596,-2.03677 -2.79114,-5.50683 -1.13154,-3.47005 -1.13154,-7.92077 0,-2.33852 0.60349,-4.82791 0.60349,-2.56482 1.8859,-5.05421 1.35785,-2.56482 3.16831,-4.6016 1.8859,-2.03677 4.6016,-3.24374 2.79113,-1.28242 6.03488,-1.28242 8.07165,0 12.06976,4.29986 4.07354,4.22441 4.07354,11.5417 0,0.15088 0,0.30175 0,0.15087 -0.0754,0.67892 -0.0754,0.45262 -0.22631,0.90523 -0.15087,0.45262 -0.52805,0.98067 -0.37718,0.52805 -0.98067,0.98067 -0.60349,0.37718 -1.58416,0.67892 -0.98066,0.30175 -2.26308,0.30175 h -22.10274 q 0,0.22631 0,0.52805 0.0754,0.30174 0.2263,1.20698 0.15088,0.90523 0.37718,1.81046 0.22631,0.90523 0.67893,2.11221 0.45261,1.20697 1.0561,2.26308 0.60349,1.0561 1.50872,2.1122 0.90523,1.05611 2.03677,1.81047 1.13154,0.75436 2.7157,1.28241 1.65959,0.45262 3.47006,0.45262 z m 0.0754,-30.47615 q -3.01744,0.15088 -5.35595,1.50872 -2.33852,1.35785 -3.47006,2.94201 -1.13154,1.58415 -1.96134,3.62093 -0.75436,2.03677 -0.90523,2.86656 -0.15087,0.8298 -0.22631,1.43329 h 22.10275 q 0.90523,-0.52805 0.90523,-1.81047 0,-0.60348 -0.30174,-1.65959 -0.22631,-1.13154 -0.98067,-2.71569 -0.75436,-1.6596 -1.96133,-3.01744 -1.13154,-1.43329 -3.24375,-2.33852 -2.03677,-0.98067 -4.6016,-0.8298 z"
         style="fill:#f56051;fill-opacity:1;stroke-width:0.392895"
         id="path61" />
    </g>
    <path
       id="rect949"
       style="fill:#f56051;fill-opacity:1;stroke-width:0.264583"
       d="m 107.7309,92.974686 h 30.62706 v 4.299995 H 107.7309 Z" />
    <path
       id="rect951"
       style="fill:#f56051;fill-opacity:1;stroke-width:0.264583"
       d="m 360.73871,92.974998 h 30.62706 v 4.299995 h -30.62706 z" />
  </g>
</svg>
