<?xml version="1.0" encoding="UTF-8" standalone="no"?>
<svg
   xmlns:dc="http://purl.org/dc/elements/1.1/"
   xmlns:cc="http://creativecommons.org/ns#"
   xmlns:rdf="http://www.w3.org/1999/02/22-rdf-syntax-ns#"
   xmlns:svg="http://www.w3.org/2000/svg"
   xmlns="http://www.w3.org/2000/svg"
   width="200"
   height="200"
   viewBox="0 0 52.916664 52.916664"
   version="1.1"
   id="svg1041">
  <defs
     id="defs1035">
    <clipPath
       clipPathUnits="userSpaceOnUse"
       id="clipPath177">
      <rect
         style="fill:none;stroke-width:0.264583"
         id="rect179"
         width="52.916664"
         height="80.130951"
         x="430.13687"
         y="190.5" />
    </clipPath>
    <clipPath
       clipPathUnits="userSpaceOnUse"
       id="clipPath204">
      <rect
         style="fill:none;stroke-width:0.264583"
         id="rect206"
         width="32.902897"
         height="2.24999"
         x="208.96886"
         y="308.76312" />
    </clipPath>
    <clipPath
       clipPathUnits="userSpaceOnUse"
       id="clipPath151">
      <rect
         style="fill:none;stroke-width:0.264583"
         id="rect153"
         width="49.892857"
         height="69.547623"
         x="63.5"
         y="193.52382" />
    </clipPath>
  </defs>
  <metadata
     id="metadata1038">
    <rdf:RDF>
      <cc:Work
         rdf:about="">
        <dc:format>image/svg+xml</dc:format>
        <dc:type
           rdf:resource="http://purl.org/dc/dcmitype/StillImage" />
        <dc:title></dc:title>
      </cc:Work>
    </rdf:RDF>
  </metadata>
  <g
     id="layer1">
    <path
       id="rect1043"
       style="fill:#f56051;fill-opacity:1;stroke-width:0.264583"
       d="M 6.4294555,4.453383 H 48.058995 c 1.385,0 2.5,1.0704 2.5,2.4000001 V 46.587212 c 0,1.3296 -1.115,2.4 -2.5,2.4 H 6.4294555 c -1.385,0 -2.5,-1.0704 -2.5,-2.4 V 6.8533831 c 0,-1.3296001 1.115,-2.4000001 2.5,-2.4000001 z" />
    <g
       aria-label="d"
       id="text19"
       style="font-size:41.2649px;line-height:1.25;font-family:Leorio;-inkscape-font-specification:Leorio;fill:#ffffff;stroke-width:0.214921">
      <path
         d="m 35.29167,36.531442 h 2.723483 v 2.352099 h -4.497874 q -0.701503,0 -1.196682,-0.453914 -0.453914,-0.495179 -0.453914,-1.196682 -0.288854,0.206325 -0.784033,0.495179 -0.495179,0.247589 -2.145775,0.701503 -1.609331,0.453914 -3.342457,0.453914 -1.526801,0 -3.053603,-0.536444 -1.526801,-0.577708 -2.929808,-1.650596 -1.403006,-1.072887 -2.269569,-2.971072 -0.866563,-1.939451 -0.866563,-4.37408 0,-2.475894 0.742768,-4.497874 0.784033,-2.063245 2.02198,-3.301192 1.237947,-1.279212 2.723484,-1.93945 1.485536,-0.701504 3.053602,-0.701504 1.279212,0 2.43463,0.288855 1.155417,0.247589 1.85692,0.618973 0.742768,0.371384 1.279212,0.784033 0.536444,0.371384 0.784033,0.618974 l 0.206325,0.288854 v -6.561119 q 0,-0.453914 -0.24759,-0.825298 -0.206324,-0.412649 -0.577708,-0.618974 -0.371385,-0.247589 -0.825298,-0.247589 h -3.672577 l -0.08253,-2.228305 h 5.158112 q 1.155417,0 1.93945,0.825298 0.825298,0.784034 0.825298,1.939451 V 35.33476 q 0,0.495178 0.33012,0.866563 0.371384,0.330119 0.866563,0.330119 z M 31.495299,33.06519 q 0,-0.123795 0.08253,-1.733126 0.123794,-1.609331 0.123794,-3.136132 0,-1.568066 -0.206324,-2.352099 -0.330119,-1.526802 -1.898186,-3.053603 -1.526801,-1.526801 -3.920165,-1.774391 -1.155417,-0.123794 -2.3521,0.453914 -1.196682,0.577709 -2.187039,1.609331 -0.949093,1.031623 -1.568066,2.599689 -0.618974,1.526801 -0.618974,3.218662 0,3.631311 2.02198,5.900881 2.063245,2.269569 4.786729,2.269569 2.310834,0 4.002695,-1.526801 1.733126,-1.526801 1.733126,-2.475894 z"
         style="fill:#ffffff;stroke-width:0.214921"
         id="path18" />
    </g>
    <path
       id="rect21"
       style="fill:#ffffff;stroke-width:0.247312"
       d="m 18.001781,42.176155 h 19.25449 v 2.158 h -19.25449 z" />
  </g>
</svg>
